<?xml version="1.0" encoding="UTF-8" standalone="no"?>
<svg className="icon icon-account" viewBox="0 0 24 24" focusable="true">
    <use xlinkHref="#account">
        <svg id="account" viewBox="0 0 24 24"><path d="M12 10.75c2.066 0 3.75-1.682 3.75-3.75S14.066 3.25 12 3.25 8.25 4.932 8.25 7s1.683 3.75 3.75 3.75zm0-6c1.24 0 2.25 1 2.25 2.25s-1 2.25-2.25 2.25-2.25-1-2.25-2.25 1-2.25 2.25-2.25zm0 7.5a8.26 8.26 0 0 0-8.25 8.25v.25h1.5v-.25A6.76 6.76 0 0 1 12 13.747a6.76 6.76 0 0 1 6.75 6.753v.25h1.5v-.25A8.26 8.26 0 0 0 12 12.25z"></path></svg>
    </use>
</svg>